<?xml version="1.0" encoding="UTF-8" standalone="no"?>
<!DOCTYPE svg PUBLIC "-//W3C//DTD SVG 1.1//EN" "http://www.w3.org/Graphics/SVG/1.1/DTD/svg11.dtd">
<svg width="100%" height="100%" viewBox="0 0 248 248" version="1.1" xmlns="http://www.w3.org/2000/svg" xmlns:xlink="http://www.w3.org/1999/xlink" xml:space="preserve" xmlns:serif="http://www.serif.com/" style="fill-rule:evenodd;clip-rule:evenodd;stroke-linejoin:round;stroke-miterlimit:2;">
    <g>
        <g>
            <path d="M86.413,180.861L80.88,144.937L119.89,83.958L81.468,121.1L42.068,122.39L9.401,178.39L41.902,144.119L35.666,179.8L42.48,179.927L49.709,231.263L41.89,246.958L56.068,239.39L56.068,229.735C56.068,229.735 62.097,182.922 62.097,184.159L62.097,239.09L77.89,247.959L70.734,231.391L81.638,180.648L86.413,180.861Z" style="fill:rgb(53,31,16);fill-rule:nonzero;"/>
            <path d="M48.407,117.603L63.612,163.928L73.136,116.779L48.407,117.603Z" style="fill:rgb(226,212,191);fill-rule:nonzero;"/>
            <g>
                <path d="M91.014,90.051C90.571,85.977 87.825,82.934 84.885,83.256C83.701,83.385 82.668,84.045 81.882,85.048C76.349,79.706 65.828,77.734 54.961,80.701C43.302,83.887 34.874,91.769 33.639,99.761C31.887,98.894 30.033,98.821 28.627,99.754C26.16,101.387 25.992,105.481 28.255,108.896C30.517,112.313 34.351,113.758 36.819,112.124C37.198,111.873 37.515,111.558 37.786,111.203C43.395,116.328 53.735,118.172 64.401,115.258C75.207,112.307 83.234,105.326 85.339,97.958C85.716,98.027 86.1,98.047 86.489,98.006C89.431,97.685 91.455,94.125 91.014,90.051Z" style="fill:rgb(234,187,152);fill-rule:nonzero;"/>
                <g>
                    <g transform="matrix(0.9993,0.038,-0.038,0.9993,3.7062,-1.8449)">
                        <ellipse cx="50.353" cy="96.505" rx="2.138" ry="2.318" style="fill:rgb(53,31,16);"/>
                    </g>
                    <g transform="matrix(0.9993,0.038,-0.038,0.9993,3.5645,-2.5271)">
                        <ellipse cx="68.217" cy="92.442" rx="2.138" ry="2.317" style="fill:rgb(53,31,16);"/>
                    </g>
                </g>
                <path d="M29.826,88.157C29.164,92.973 30.096,98.046 33.656,103.088C33.656,103.088 36.049,89.7 51.459,83.307L29.826,88.157Z" style="fill:rgb(53,31,16);fill-rule:nonzero;"/>
                <path d="M61.453,81.066C75.529,80.733 86.462,91.899 86.462,91.899C86.462,91.899 86.031,84.515 80.972,76.689L61.453,81.066Z" style="fill:rgb(53,31,16);fill-rule:nonzero;"/>
            </g>
            <path d="M49.259,117.39L38.974,122.633C38.974,122.633 47.525,155.26 63.187,163.503L49.259,117.39Z" style="fill:rgb(102,94,90);fill-rule:nonzero;"/>
            <path d="M70.45,113.907L63.612,163.928C63.612,163.928 79.345,140.47 83.467,121.099L70.45,113.907Z" style="fill:rgb(102,94,90);fill-rule:nonzero;"/>
            <path d="M60.894,116.167L47.04,109.383L48.491,127.027L61.103,119.52L74.257,127.044L74.042,109.476L60.894,116.167Z" style="fill:white;fill-rule:nonzero;"/>
            <g>
                <g transform="matrix(0.9758,-0.2188,0.2188,0.9758,-16.0919,14.0562)">
                    <rect x="19.503" y="76.352" width="71.834" height="6.667" style="fill:rgb(53,31,16);"/>
                </g>
                <g transform="matrix(0.9758,-0.2188,0.2188,0.9758,-12.633,12.6065)">
                    <rect x="32.063" y="48.677" width="37.082" height="29.333" style="fill:rgb(53,31,16);"/>
                </g>
                <g transform="matrix(-0.2188,-0.9758,0.9758,-0.2188,-6.7252,140.066)">
                    <rect x="48.633" y="54.184" width="8.149" height="37.082" style="fill:rgb(102,94,90);"/>
                </g>
            </g>
        </g>
        <g>
            <path d="M163.462,68.044C163.462,68.044 135.067,74.056 131.067,126.723C131.067,126.723 179.897,142.352 215.067,118.723C215.067,118.723 209.073,77.287 182.145,72.341L163.462,68.044Z" style="fill:rgb(247,242,232);fill-rule:nonzero;"/>
            <path d="M179.891,114.584C184.793,114.146 189.125,112.604 192.259,110.226C193.837,110.499 196.098,109.172 197.763,106.853C199.746,104.088 200.128,100.968 198.617,99.887C198.27,99.637 197.848,99.523 197.386,99.52C196.669,91.758 188.049,84.388 176.443,82.231C166.08,80.305 156.445,83.116 152.037,88.715C151.549,88.148 150.967,87.806 150.327,87.782C148.469,87.712 146.861,90.32 146.741,93.608C146.617,96.895 148.022,99.617 149.883,99.687C149.988,99.691 150.092,99.683 150.196,99.67C151.699,104.058 155.647,110.108 161.075,112.905L111.89,82.957L159.468,121.353L176.779,122.536L229.89,144.957L179.891,114.584Z" style="fill:rgb(234,187,152);fill-rule:nonzero;"/>
            <path d="M164.659,145.38L161.065,120.698C161.065,120.698 167.721,116.444 170.131,116.401C172.805,116.354 180.299,120.698 180.299,120.698L176.199,145.267L164.659,145.38Z" style="fill:rgb(249,237,220);fill-rule:nonzero;"/>
            <path d="M189.029,75.029C192.18,72.472 205.607,60.395 187.465,53.539C169.275,46.665 170.271,65.036 170.59,68.352C149.056,66.683 149.328,90.327 149.328,90.327C149.328,90.327 164.744,94.59 175.458,82.047C175.458,82.047 177.62,98.24 196.33,102.835C196.33,102.835 202.49,85.399 189.029,75.029Z" style="fill:rgb(53,31,16);fill-rule:nonzero;"/>
            <g transform="matrix(0.9832,0.1827,-0.1827,0.9832,19.9152,-28.3025)">
                <ellipse cx="163.526" cy="93.908" rx="2.139" ry="2.318" style="fill:rgb(53,31,16);"/>
            </g>
            <g transform="matrix(0.9832,0.1828,-0.1828,0.9832,21.0047,-31.4565)">
                <ellipse cx="181.176" cy="98.237" rx="2.138" ry="2.319" style="fill:rgb(53,31,16);"/>
            </g>
            <path d="M190.304,74.724C191.562,74.209 195.554,72.023 193.941,70.198C192.675,68.764 188.209,71.291 188.181,72.605C188.515,70.961 188.649,67.077 186.162,67.936C184.411,68.54 184.327,73.021 185.102,74.503C184.306,72.449 179.775,71.813 179.051,73.655C177.795,76.863 182.891,77.944 185.127,77.147C183.471,78.498 180.935,80.771 182.642,82.535C182.808,82.707 184.782,83.088 185.052,83.002C185.75,82.781 186.504,81.903 186.915,81.026C186.817,82.588 187.19,84.472 188.606,84.571C191.486,84.774 191.47,79.249 190.656,77.813C191.806,79.334 194.423,79.644 195.142,77.929C196.373,75 192.463,73.766 190.304,74.724Z" style="fill:rgb(249,237,220);fill-rule:nonzero;"/>
            <path d="M135.224,227.957C135.224,227.957 136.73,137.937 174.171,144.778C211.612,151.617 238.557,223.29 238.557,223.29C238.557,223.29 187.224,255.957 135.224,227.957Z" style="fill:rgb(255,247,233);fill-rule:nonzero;"/>
            <path d="M226.868,196.081C226.868,196.081 210.713,140.671 171.355,144.792C171.379,144.575 171.389,144.457 171.389,144.457C131.889,146.957 137.389,205.457 137.389,205.457C172.002,193.031 170.045,154.403 171.192,146.096C172.951,153.476 190.618,187.158 226.868,196.081Z" style="fill:rgb(249,237,220);fill-rule:nonzero;"/>
            <path d="M135.229,97.169L111.89,82.957L133.516,100.41C134.066,99.318 134.634,98.236 135.229,97.169Z" style="fill:rgb(249,237,220);fill-rule:nonzero;"/>
            <path d="M199.552,132.15L229.89,144.958L201.283,127.58C200.837,129.122 200.247,130.651 199.552,132.15Z" style="fill:rgb(249,237,220);fill-rule:nonzero;"/>
        </g>
        <g>
            <g>
                <path d="M113.45,53.624L111.671,53.624C111.74,62.751 113.209,75.806 117.423,94.469C129.75,149.061 108.939,166.157 108.729,166.322L109.836,167.746C110.738,167.044 131.792,149.914 119.183,94.071C114.966,75.4 113.527,62.507 113.45,53.624Z" style="fill:rgb(102,94,90);fill-rule:nonzero;"/>
            </g>
            <g>
                <path d="M142.611,7.747C134.242,-6.867 117.989,2.36 113.072,9.68C108.155,2.36 91.903,-6.867 83.533,7.747C72.562,26.9 98.799,42.489 112.83,50.318C112.83,50.318 112.993,50.497 113.072,50.453C113.151,50.497 113.314,50.318 113.314,50.318C127.345,42.489 153.58,26.901 142.611,7.747Z" style="fill:rgb(254,0,0);fill-rule:nonzero;"/>
                <path d="M112.829,50.318L106.89,58.957L120.89,59.957L112.829,50.318Z" style="fill:rgb(254,0,0);fill-rule:nonzero;"/>
            </g>
        </g>
        <g id="envelop" transform="matrix(0.6875,0,0,0.6875,26.7016,-0.328083)">
            <g opacity="0.78">
                <g transform="matrix(1,0,0,1,88.5857,240.317)">
                    <path d="M50,32L50,4L14,4L14,32L13.6,32.67L26,40L38,40L50.42,32.73L50,32Z" style="fill:rgb(255,229,249);fill-rule:nonzero;"/>
                </g>
                <g transform="matrix(1,0,0,1,88.5857,240.317)">
                    <path d="M44,16.65C44,18.15 43.402,19.59 42.34,20.65L40,23L32,31L24,23L21.68,20.69C20.699,19.642 20.153,18.259 20.153,16.823C20.153,13.718 22.708,11.163 25.813,11.163C27.249,11.163 28.632,11.709 29.68,12.69L32,15.16L34.34,12.65C35.401,11.59 36.841,10.994 38.34,10.994C41.443,10.994 43.998,13.547 44,16.65Z" style="fill:rgb(254,0,0);fill-rule:nonzero;"/>
                </g>
                <g transform="matrix(1,0,0,1,88.5857,240.317)">
                    <path d="M59.84,26.94L60,27L60,27.12L50.42,32.73L50,32L50,21L59.84,26.94Z" style="fill:rgb(251,121,198);fill-rule:nonzero;"/>
                </g>
                <g transform="matrix(1,0,0,1,88.5857,240.317)">
                    <path d="M14,21L14,32L13.6,32.67L4.09,27.05L4.16,26.94L14,21Z" style="fill:rgb(251,121,198);fill-rule:nonzero;"/>
                </g>
                <g transform="matrix(1,0,0,1,88.5857,240.317)">
                    <path d="M38,40L50.42,32.73L60,27.12L60,56C60,58.194 58.194,60 56,60L8,60C5.806,60 4,58.194 4,56L4,27L4.09,27.05L13.6,32.67L26,40L38,40Z" style="fill:rgb(255,247,233);fill-rule:nonzero;stroke:rgb(53,31,16);stroke-width:1.45px;"/>
                </g>
                <g transform="matrix(1,0,0,1,88.5857,240.317)">
                    <path d="M4,27L4,56C4,58.194 5.806,60 8,60L56,60C58.194,60 60,58.194 60,56L60,27" style="fill:none;fill-rule:nonzero;stroke:rgb(53,31,16);stroke-width:3px;stroke-linecap:round;stroke-miterlimit:4;"/>
                </g>
                <g transform="matrix(1,0,0,1,88.5857,240.317)">
                    <path d="M4,27L4.09,27.05L13.6,32.67L26,40L38,40L50.42,32.73L60,27.12" style="fill:none;fill-rule:nonzero;stroke:rgb(53,31,16);stroke-width:3px;stroke-linecap:round;stroke-miterlimit:4;"/>
                </g>
                <g transform="matrix(1,0,0,1,88.5857,240.317)">
                    <path d="M58,58L38,40" style="fill:none;fill-rule:nonzero;stroke:rgb(53,31,16);stroke-width:3px;stroke-linecap:round;stroke-miterlimit:4;"/>
                </g>
                <g transform="matrix(1,0,0,1,88.5857,240.317)">
                    <path d="M6,58L26,40" style="fill:none;fill-rule:nonzero;stroke:rgb(53,31,16);stroke-width:3px;stroke-linecap:round;stroke-miterlimit:4;"/>
                </g>
                <g transform="matrix(1,0,0,1,88.5857,240.317)">
                    <path d="M50,27L50,32" style="fill:none;fill-rule:nonzero;stroke:rgb(53,31,16);stroke-width:3px;stroke-linecap:round;stroke-miterlimit:4;"/>
                </g>
                <g transform="matrix(1,0,0,1,88.5857,240.317)">
                    <path d="M14,21L14,4L50,4L50,21" style="fill:none;fill-rule:nonzero;stroke:rgb(53,31,16);stroke-width:3px;stroke-linecap:round;stroke-miterlimit:4;"/>
                </g>
                <g transform="matrix(1,0,0,1,88.5857,240.317)">
                    <path d="M14,32L14,27" style="fill:none;fill-rule:nonzero;stroke:rgb(53,31,16);stroke-width:3px;stroke-linecap:round;stroke-miterlimit:4;"/>
                </g>
                <g transform="matrix(1,0,0,1,88.5857,240.317)">
                    <path d="M59.84,26.94L50,21L50,27" style="fill:none;fill-rule:nonzero;stroke:rgb(53,31,16);stroke-width:3px;stroke-linecap:round;stroke-miterlimit:4;"/>
                </g>
                <g transform="matrix(1,0,0,1,88.5857,240.317)">
                    <path d="M14,27L14,21L4.16,26.94" style="fill:none;fill-rule:nonzero;stroke:rgb(53,31,16);stroke-width:3px;stroke-linecap:round;stroke-miterlimit:4;"/>
                </g>
            </g>
        </g>
    </g>
</svg>
